<?xml version="1.0" encoding="UTF-8"?>
<svg id="svg8" xmlns="http://www.w3.org/2000/svg" xmlns:svg="http://www.w3.org/2000/svg" xmlns:sodipodi="http://sodipodi.sourceforge.net/DTD/sodipodi-0.dtd" xmlns:rdf="http://www.w3.org/1999/02/22-rdf-syntax-ns#" xmlns:inkscape="http://www.inkscape.org/namespaces/inkscape" xmlns:dc="http://purl.org/dc/elements/1.1/" xmlns:cc="http://creativecommons.org/ns#" version="1.1" viewBox="0 0 512 512">
  <!-- Generator: Adobe Illustrator 29.6.1, SVG Export Plug-In . SVG Version: 2.1.1 Build 9)  -->
  <defs>
    <style>
      .st0 {
        fill: #fff;
      }
    </style>
  </defs>
  <sodipodi:namedview id="base" bordercolor="#666666" borderopacity="1.0" inkscape:current-layer="layer6" inkscape:cx="256" inkscape:cy="256" inkscape:document-rotation="0" inkscape:document-units="px" inkscape:guide-bbox="true" inkscape:pageopacity="0.0" inkscape:pageshadow="2" inkscape:window-height="713" inkscape:window-maximized="1" inkscape:window-width="1315" inkscape:window-x="51" inkscape:window-y="27" inkscape:zoom="0.75" pagecolor="#ffffff" showgrid="true" showguides="true" units="px">
    <inkscape:grid id="grid10" empspacing="4" type="xygrid"/>
    <sodipodi:guide id="guide23" inkscape:color="#ffffff" inkscape:label="baseline" inkscape:locked="true" orientation="0,1" position="511.99998,64"/>
  </sodipodi:namedview>
  <g id="layer6" inkscape:groupmode="layer" inkscape:label="icon">
    <path id="path2" class="st0" d="M456,162.8c54.5,87.3,28,202.3-59.3,256.8-69,43.1-155.2,35.6-215.3-12.5l8.9-5.6c56.7,43.6,136.9,49.9,201.1,9.7,82.7-51.6,107.8-160.5,56.1-243.2-35.4-56.7-91.9-86.9-154.2-83.2-17,1-31.5,5.9-31.5,5.9,0,0-.8-5.2-1.8-8.4,76.4-20.6,148.5,4.4,196,80.4h0ZM115.9,301.8l8.9-5.6c-8.3-41.4-2.4-81.4,18-117.9,0,0-5-5.5-8-7-21.8,39.4-28.8,86-19,130.5h0ZM349.6,313.7c-1-1.5-1.7-4.3-1.9-8.5-.2-5.5-.2-10.2-.2-14.1v-55.8c0-14.6-5.2-24.6-15.6-29.9-10.4-5.3-22.3-7.9-35.6-7.9-20.5,0-35,5.4-43.5,16.1-5.3,6.8-8.3,15.6-9,26.2h30.7c.8-4.7,2.3-8.4,4.5-11.2,3.2-3.7,8.6-5.6,16.2-5.6s11.9.9,15.4,2.8c3.5,1.9,5.3,5.3,5.3,10.3s-2.3,7.1-6.9,9c-2.5,1.1-6.8,2-12.7,2.8l-10.9,1.3c-12.4,1.6-21.7,4.2-28.1,7.8-11.6,6.7-17.4,17.5-17.4,32.5s3.6,20.4,10.8,26.7c7.2,6.3,16.4,9.4,27.4,9.4s16.5-2,23.3-5.9c5.8-3.3,10.8-7.4,15.3-12.2.2,2.8.5,5.2.9,7.4.4,2.2,1,4.5,2,6.9h34.6v-4.7c-2.1-1-3.6-2.2-4.7-3.7h0ZM315.8,274.8c-.2,10.6-3.3,18-9.1,22-5.9,4-12.2,6-19.2,6s-8.1-1.2-11.2-3.6c-3.1-2.4-4.6-6.3-4.6-11.8s2.5-10.6,7.5-13.5c3-1.7,7.8-3.2,14.6-4.3l7.2-1.3c3.6-.7,6.5-1.4,8.5-2.2,2.1-.8,4.1-1.8,6.2-3.1v11.8h0ZM225.6,109.7c0-25.2-20.5-45.7-45.7-45.7s-45.7,20.5-45.7,45.7,20.5,45.7,45.7,45.7,45.7-20.5,45.7-45.7h0ZM317.4,126.6c-20.2-3.2-40.1-1.8-58.6,3.4-5,19.5-17.3,37.2-35.7,48.7-13.8,8.6-29.1,12.6-44.3,12.4-8.8,14.7-15,31.2-17.9,49.2-4.6,29,.3,57.3,12.4,81.8l-23,14.4c-7.5-4-16.9-3.9-24.5,1.1l-87.3,56.7c-11.2,7.3-14.4,22.2-7.1,33.4,7.3,11.2,22.2,14.4,33.4,7.1l87.3-56.7c7.7-5,11.6-13.7,10.9-22.2l22.2-13.9c20.6,28.4,52,48.9,89.3,54.8,74.6,11.8,144.6-39.1,156.4-113.6,11.8-74.6-39.1-144.6-113.6-156.4h0ZM392.8,278.8c-8.5,53.4-58.6,89.8-112,81.4-53.4-8.5-89.8-58.6-81.4-112,8.5-53.4,58.6-89.8,112-81.4,53.4,8.5,89.8,58.6,81.4,112h0Z"/>
  </g>
</svg>