<svg xmlns="http://www.w3.org/2000/svg" data-name="Layer 3" viewBox="0 0 100 125" x="0px" y="0px"><title>Artboard 33 copy</title><circle cx="44.98" cy="64.11" r="1"/><circle cx="36.64" cy="37.2" r="1"/><circle cx="36.59" cy="51.94" r="1"/><circle cx="50.18" cy="38.92" r="1"/><circle cx="53.71" cy="57.69" r="1"/><circle cx="65.77" cy="52.17" r="1"/><circle cx="33.01" cy="41.64" r="1"/><circle cx="49.45" cy="21.34" r="1"/><circle cx="54.34" cy="39" r="1"/><circle cx="86.5" cy="42.54" r="1"/><circle cx="37.91" cy="66.06" r="1"/><circle cx="39.62" cy="82.58" r="1"/><circle cx="60.59" cy="76.95" r="1"/><circle cx="21.15" cy="75.85" r="1"/><circle cx="82.53" cy="35.86" r="1"/><circle cx="68.85" cy="37.29" r="1"/><circle cx="47.76" cy="31.97" r="1.94"/><circle cx="70.37" cy="53.51" r="1"/><circle cx="64.25" cy="43.41" r="1"/><circle cx="30.01" cy="52.48" r="1"/><circle cx="60.06" cy="59.21" r="1"/><circle cx="59.71" cy="30.59" r="1"/><circle cx="20.56" cy="38.61" r="1"/><circle cx="48.78" cy="63.49" r="1"/><circle cx="44.32" cy="43.75" r="1"/><circle cx="32.93" cy="46.21" r="1"/><circle cx="26.37" cy="72.5" r="1"/><circle cx="39.18" cy="47.58" r="1"/><circle cx="28.81" cy="36.78" r="1"/><circle cx="70.5" cy="42.4" r="1"/><circle cx="45.37" cy="49.06" r="1"/><circle cx="61.11" cy="49.76" r="1"/><circle cx="26.09" cy="56.79" r="1"/><circle cx="49.04" cy="43.17" r="1"/><circle cx="49.37" cy="57.25" r="1"/><circle cx="67.29" cy="34.68" r="1"/><circle cx="42.94" cy="29.33" r="1"/><circle cx="64.46" cy="66.06" r="1"/><circle cx="82.41" cy="25.72" r="1"/><circle cx="60.26" cy="40.17" r="1"/><circle cx="66.99" cy="56.65" r="1.59"/><circle cx="15.63" cy="64.98" r="1"/><circle cx="56.55" cy="22.1" r="1"/><circle cx="76.74" cy="52.58" r="1"/><circle cx="42.81" cy="57.76" r="1"/><circle cx="64.64" cy="61.07" r="1"/><circle cx="60.98" cy="34.74" r="1"/><circle cx="13.93" cy="55.59" r="1"/><circle cx="42.54" cy="69.96" r="1"/><circle cx="49.09" cy="51.88" r="1"/><circle cx="42" cy="34.24" r="1"/><circle cx="75.53" cy="33.54" r="1"/><circle cx="54.93" cy="43.52" r="1"/><circle cx="46.3" cy="39.17" r="1"/><circle cx="25.43" cy="30.02" r="1"/><circle cx="73.03" cy="72.47" r="1"/><circle cx="57.13" cy="68.78" r="1"/><circle cx="74.11" cy="24.05" r="1"/><circle cx="61.23" cy="53.77" r="1"/><circle cx="70.58" cy="48.14" r="1"/><circle cx="55.99" cy="62.66" r="1"/><circle cx="31.4" cy="58.35" r="1"/><circle cx="82.14" cy="47.03" r="1"/><circle cx="54.01" cy="76.29" r="1"/><circle cx="49.77" cy="68.19" r="1"/><circle cx="63.21" cy="25.57" r="1"/><circle cx="38.02" cy="21.98" r="1"/><circle cx="28.3" cy="42.17" r="1"/><circle cx="42.47" cy="76.17" r="1"/><circle cx="14.54" cy="42.83" r="1"/><circle cx="50" cy="47.73" r="1"/><circle cx="76.87" cy="45.17" r="1"/><circle cx="84.51" cy="54.52" r="1"/><circle cx="80.61" cy="64.06" r="1"/><circle cx="35.11" cy="29.7" r="1"/><circle cx="33.39" cy="73.02" r="1"/><circle cx="26.83" cy="48.36" r="1"/><circle cx="46.58" cy="77.19" r="1"/><circle cx="40.37" cy="44.1" r="1"/><circle cx="52.33" cy="63.37" r="1"/><circle cx="29.41" cy="65.66" r="2.45"/><circle cx="47.72" cy="26.38" r="1"/><circle cx="53.81" cy="49.16" r="2.04"/><circle cx="53.93" cy="32.53" r="1"/><circle cx="67.75" cy="20.8" r="1"/><circle cx="38.99" cy="62.14" r="1"/><circle cx="69.98" cy="62.43" r="1"/><circle cx="42.09" cy="38.56" r="1"/><circle cx="36.18" cy="57.49" r="1"/><circle cx="22.76" cy="59.91" r="1"/><circle cx="75.32" cy="59.88" r="1"/><circle cx="66.39" cy="69.66" r="1"/><circle cx="20.23" cy="48.48" r="1"/><text x="0" y="115" fill="#000000" font-size="5px" font-weight="bold" font-family="'Helvetica Neue', Helvetica, Arial-Unicode, Arial, Sans-serif">Created by Anastasia Golovko</text><text x="0" y="120" fill="#000000" font-size="5px" font-weight="bold" font-family="'Helvetica Neue', Helvetica, Arial-Unicode, Arial, Sans-serif">from the Noun Project</text></svg>